<svg id="Capa_1" enable-background="new 0 0 512 512" height="512" viewBox="0 0 512 512" width="512" xmlns="http://www.w3.org/2000/svg"><g><path d="m410.378 204.997-38.076-98.997h-295.171l-15 97.5h-62.131v105h60v45h60c0 28.949 23.551 52.5 52.5 52.5s52.5-23.551 52.5-52.5h122c0 28.949 23.551 52.5 52.5 52.5s52.5-23.551 52.5-52.5h60v-132.869zm-32.718-1.497h-76.66v-67.5h50.698zm-106.66 0h-83.5v-67.5h83.5zm-113.5-67.5v67.5h-65.016l10.385-67.5zm-127.5 142.5v-45h30v45zm142.5 97.5c-12.407 0-22.5-10.093-22.5-22.5s10.093-22.5 22.5-22.5 22.5 10.093 22.5 22.5-10.093 22.5-22.5 22.5zm43.047-52.5c-9.498-13.588-25.247-22.5-43.047-22.5s-33.549 8.912-43.047 22.5h-39.453v-90h181v90zm85.453 0v-90h83.5v69.695c-11.487 3.432-21.33 10.696-28.047 20.305zm98.5 52.5c-12.407 0-22.5-10.093-22.5-22.5s10.093-22.5 22.5-22.5 22.5 10.093 22.5 22.5-10.093 22.5-22.5 22.5zm82.5-52.5h-39.453c-6.717-9.609-16.56-16.873-28.046-20.305v-67.211l67.5 10.385v77.131z"/></g></svg>