<svg id="Capa_1" enable-background="new 0 0 510 510" height="512" viewBox="0 0 510 510" width="512" xmlns="http://www.w3.org/2000/svg"><g><path d="m510 212.845-52.111-20.845h-44.676l-72-72h-281.025l-24 72h-36.188v166h82.469c6.276 18.58 23.86 32 44.531 32s38.255-13.42 44.531-32h166.938c6.276 18.58 23.86 32 44.531 32s38.255-13.42 44.531-32h82.469zm-139.213-20.845h-84.787v-42h42.787zm-212.787 0v-42h34v42zm64-42h34v42h-34zm-140.188 0h46.188v42h-60.188zm-51.812 136h33v-30h-33v-34h226v106h-84.469c-6.276-18.58-23.86-32-44.531-32s-38.255 13.42-44.531 32h-52.469zm97 74c-9.374 0-17-7.626-17-17s7.626-17 17-17 17 7.626 17 17-7.626 17-17 17zm256 0c-9.374 0-17-7.626-17-17s7.626-17 17-17 17 7.626 17 17-7.626 17-17 17zm44.531-32c-6.276-18.58-23.86-32-44.531-32s-38.255 13.42-44.531 32h-52.469v-106h166.111l27.889 11.156v22.844h-33v30h33v42z"/></g></svg>