<svg id="Layer_1" enable-background="new 0 0 510 510" height="512" viewBox="0 0 510 510" width="512" xmlns="http://www.w3.org/2000/svg"><g><path d="m510 227.093-111.524-15.932-75.756-106.059h-196.701l-56.25 105h-69.769v147.298l65.672 13.13c23.795 50.613 98.302 43.717 112.43-10.428h153.797c13.336 51.691 83.424 61.234 110.029 15h68.072zm-149.148-16.991h-120.852v-75h67.28zm-216.871-75h66.019v75h-106.197zm-23.981 240c-16.542 0-30-13.458-30-30 1.648-39.799 58.358-39.788 60 0 0 16.542-13.458 30-30 30zm270 0c-16.542 0-30-13.458-30-30 1.648-39.799 58.358-39.788 60 0 0 16.542-13.458 30-30 30zm90-30h-30c-1.833-70.711-99.152-82.29-118.102-15h-153.796c-17.819-64.171-109.53-57.613-117.777 8.765l-30.325-6.063v-92.702h358.935l91.065 13.01z"/><path d="m225 270.102h60v30h-60z"/></g></svg>